inDegrees=no
num_controls=7
num_derivatives=13
num_iterations=121
num_multipliers=7
num_parameters=0
num_slacks=7
num_states=26
objective=0.545913
objective_accelerations=0.041271
objective_balance=0.003710
objective_effort=0.040065
objective_height=0.451399
objective_ligament=0.009468
solver_duration=1244.348358
status=Solve_Succeeded
success=true
DataType=double
version=3
OpenSimVersion=4.5
endheader
time	/jointset/ground_pelvis/pelvis_tilt/value	/jointset/ground_pelvis/pelvis_tx/value	/jointset/ground_pelvis/pelvis_ty/value	/jointset/hip_r/hip_flexion_r/value	/jointset/hip_r/hip_adduction_r/value	/jointset/hip_r/hip_rotation_r/value	/jointset/back/lumbar_extension/value	/jointset/patellofemoral_r/patellar_flexion_r/value	/jointset/knee_r/knee_flexion_r/value	/jointset/knee_r/knee_adduction_r/value	/jointset/knee_r/knee_rotation_r/value	/jointset/ankle_r/ankle_angle_r/value	/jointset/subtalar_r/subtalar_angle_r/value	/jointset/ground_pelvis/pelvis_tilt/speed	/jointset/ground_pelvis/pelvis_tx/speed	/jointset/ground_pelvis/pelvis_ty/speed	/jointset/hip_r/hip_flexion_r/speed	/jointset/hip_r/hip_adduction_r/speed	/jointset/hip_r/hip_rotation_r/speed	/jointset/back/lumbar_extension/speed	/jointset/patellofemoral_r/patellar_flexion_r/speed	/jointset/knee_r/knee_flexion_r/speed	/jointset/knee_r/knee_adduction_r/speed	/jointset/knee_r/knee_rotation_r/speed	/jointset/ankle_r/ankle_angle_r/speed	/jointset/subtalar_r/subtalar_angle_r/speed	/forceset/tau_hip_flexion_r	/forceset/tau_hip_adduction_r	/forceset/tau_hip_rotation_r	/forceset/tau_knee_flexion_r	/forceset/tau_ankle_angle_r	/forceset/tau_subtalar_angle_r	/forceset/tau_lumbar_extension	lambda_cid13_p0	lambda_cid14_p0	lambda_cid14_p1	lambda_cid14_p2	lambda_cid14_p3	lambda_cid14_p4	lambda_cid14_p5	/jointset/ground_pelvis/pelvis_tilt/accel	/jointset/ground_pelvis/pelvis_tx/accel	/jointset/ground_pelvis/pelvis_ty/accel	/jointset/hip_r/hip_flexion_r/accel	/jointset/hip_r/hip_adduction_r/accel	/jointset/hip_r/hip_rotation_r/accel	/jointset/back/lumbar_extension/accel	/jointset/patellofemoral_r/patellar_flexion_r/accel	/jointset/knee_r/knee_flexion_r/accel	/jointset/knee_r/knee_adduction_r/accel	/jointset/knee_r/knee_rotation_r/accel	/jointset/ankle_r/ankle_angle_r/accel	/jointset/subtalar_r/subtalar_angle_r/accel	gamma_cid13_p0	gamma_cid14_p0	gamma_cid14_p1	gamma_cid14_p2	gamma_cid14_p3	gamma_cid14_p4	gamma_cid14_p5
1.5	-0.2165956009418054	0.01051425762515065	0.8512604582820085	0.8539794543689994	-0.2251987932576232	-0.1429901005338699	-0.3046042529918989	0.650783646130093	0.650783646130093	0.03660488982586571	0.1745028063993752	0.1811585851412977	0.03992832673167761	0.5270165384996769	0.2272250175558548	0.3932126112159003	-1.934202820748588	0.01132444004678468	-0.2875994361060482	0.6992487686674314	-1.741414199839722	-1.741414199839722	0.2801983095502673	-1.895004479555103e-05	-0.4161553583416845	-0.09412036208351061	-0.1378808275076192	-0.01876549459935594	0.007578060511017657	-0.2960996484493953	0.1024587898553764	-0.01115951800643581	0.1723889970991688	-34.04899825549103	-8.839081617542856	-2.140499711528246	-4.057569624986855	-1.839462445891072	-659.660903747009	56.84613682793734	0.2488470653274392	0.5162346390475344	-0.4430064352158515	-1.146658969505135	-0.008051191577484853	-0.5089705522128825	1.66646808382785	-1.116028474277038	-1.116028474277039	0.470834961138905	-0.0003612508017180726	-0.3455028542308173	-0.05861273148584434	1.251749069701927e-07	1.879424247510925e-07	-4.051784275901134e-07	1.286504267339917e-06	-6.488495198959489e-08	2.547175114990771e-07	-4.986172046727411e-07
1.51	-0.2113134967364246	0.01281203713106277	0.8551695849519922	0.8345822907784406	-0.2250867957745615	-0.1458905779830169	-0.2975297285906525	0.6333160780186793	0.6333160780186793	0.03943236977842556	0.1745027486786199	0.1769801087462784	0.03898324819821191	0.5293282114462221	0.2322981178920345	0.3885269787701541	-1.944955008059787	0.01108164726309819	-0.2924977441522792	0.7155494551233881	-1.751842562220925	-1.751842562220925	0.2852559227565483	1.000945190974664e-05	-0.4194725549311841	-0.0948677981134956	-0.1301815381142259	-0.02043315749648721	0.006940818016395667	-0.2932840661384483	0.1047127667078753	-0.01172008069334819	0.1656761775746954	-34.95469641778762	-7.917251119765726	-2.121242006547833	-4.17635317864621	-2.089172462608349	-655.5180070272835	56.98814359653682	0.2109332152847921	0.497920617925234	-0.494146742439612	-0.998239687344353	-0.03125375953314684	-0.4802916804190798	1.595870457708629	-0.9677384221449212	-0.9677384221449089	0.5169577549262249	0.005170049576337304	-0.3147146022208164	-0.07859721335873397	1.327663414875484e-07	1.943392979912721e-07	-4.671255834462079e-07	1.327955549926074e-06	-6.249511608005493e-08	2.730817483056837e-07	-5.540006020653828e-07
1.52	-0.206010554640385	0.0151595622177411	0.8590292942788816	0.8150858570996865	-0.2249769983068904	-0.1488400446625444	-0.2902953970186006	0.615751926623033	0.6157519266230331	0.04230917251395892	0.1745031096527655	0.1727704830771818	0.03803153766952558	0.5311841166314361	0.2371741337090958	0.3833291425970247	-1.954056838387665	0.01088443696865499	-0.297397282182144	0.7312102028285069	-1.760730856686245	-1.760730856686244	0.2900628661449705	6.478893540357144e-05	-0.4223852131571353	-0.09544676112763623	-0.1224822487208662	-0.02210082039361837	0.006303575521773305	-0.2904684838275013	0.1069667435603742	-0.01228064338026041	0.1589633580502221	-35.82849378540552	-7.00313310111145	-2.10014039866005	-4.29908027653056	-2.340333770779139	-651.5011940237359	57.21024574033382	0.1576935130611628	0.476817735223831	-0.5454471806924789	-0.8165875728407435	0.00106530627117169	-0.5092165489395165	1.5384803336603	-0.8080148911001022	-0.8080148911001021	0.4207009975671292	0.004802746556105547	-0.264595181521169	-0.02491812831689912	1.424512115673541e-07	1.97947538634244e-07	-5.680020127462987e-07	1.35040708565588e-06	-5.423330858565089e-08	2.888787125246389e-07	-6.197243085043202e-07
1.53	-0.2006913568344941	0.0175548007687552	0.862834522714698	0.7955066840986288	-0.2248691064567804	-0.1518384309955245	-0.282907897515019	0.5981066244300204	0.5981066244300205	0.04523313324125273	0.1745042322216289	0.1685337072300825	0.03707467107383576	0.532575420216555	0.241833942471596	0.3776363360579664	-1.961492375301267	0.01069219097140513	-0.3022404683064693	0.7461589672084595	-1.768064388072152	-1.768064388072151	0.2947204124274368	0.0001389818431966788	-0.4249035179266109	-0.09591070677955751	-0.1145532999248551	-0.02404614634631925	0.005694331962628395	-0.2879862507327292	0.109623855920539	-0.01300697974660554	0.1520557124691281	-36.66580122268001	-5.976469164760353	-2.13674910397076	-4.406414029113328	-2.61546691867701	-647.6023073495564	57.3958890160971	0.117864458734182	0.4546109495461745	-0.5931668778314759	-0.6642032248460737	-0.02951124823449131	-0.4656953054376822	1.453464888257856	-0.6562753329091213	-0.6562753329090728	0.4869092988674161	0.005874191276309927	-0.2354669575273191	-0.05471996571196972	1.543603569322631e-07	1.98592857142683e-07	-7.102407950806348e-07	1.352671390350813e-06	-3.973253128232885e-08	3.019479496192146e-07	-6.964345933049467e-07
1.54	-0.1953606428572515	0.01999544710795092	0.86658042918766	0.7758617224335898	-0.2247631654057453	-0.1548840143219995	-0.2753748322880188	0.5803959363090341	0.5803959363090341	0.04820339500242743	0.1745055260452472	0.1642737445687152	0.0361136475852103	0.5334873509017797	0.2462556913454183	0.3714647500261483	-1.967214571183916	0.01049427715369817	-0.30683668088114	0.7603233475122168	-1.773808042280981	-1.773808042280981	0.2993230729211446	9.903988640633609e-05	-0.4270225760107491	-0.09627813971476784	-0.1066243511288439	-0.02599147229902004	0.005085088403483165	-0.2855040176379571	0.1122809682807038	-0.01373331611295052	0.1451480668880341	-37.46200320851696	-4.958051294858913	-2.171361767889002	-4.517996066458089	-2.890226863746541	-643.8384428075161	57.66662731690448	0.06181893308227784	0.4292057574882329	-0.6412030792445451	-0.4739193666502673	-6.825782024816058e-05	-0.459821839008567	1.38160351842118	-0.4900394556845302	-0.4900394556845292	0.4097238398154203	-0.0180242263605159	-0.1847458444536917	-0.005615584974703809	1.649847039811906e-07	1.983439536430646e-07	-8.413353107821016e-07	1.35060989166203e-06	-2.594667363215963e-08	3.141837660974129e-07	-7.676763355425115e-07
1.55	-0.1900232149681145	0.02247905880114009	0.8702622889286343	0.7561681604058879	-0.2246592856873854	-0.1579747417634053	-0.267704192699724	0.5626358415706243	0.5626358415706243	0.05121925323487064	0.174506236032245	0.1599945947391039	0.03514938179343104	0.533917408680747	0.2504202727019443	0.364833330726815	-1.971201339565292	0.01027987043105581	-0.3112807447176943	0.7736573697513092	-1.777932216874951	-1.777932216874953	0.3038273935145034	3.643678943908889e-05	-0.4287368580456044	-0.0965584427818621	-0.09864951852447214	-0.02811898802587049	0.00448781022811384	-0.2831390245121919	0.1150441615557204	-0.01460824854733923	0.1381992421710802	-38.21248686648933	-3.92524798833816	-2.271895785060076	-4.614607270279179	-3.129435423500821	-640.2571111821571	57.87138468284905	0.02149521505234368	0.4031269794981373	-0.6851251268535554	-0.3165562697087569	-0.03230646978505863	-0.4322266680178645	1.287221517338988	-0.3318390241010616	-0.3318390241012257	0.4675346304372378	-0.001098503971634968	-0.1541688978333697	-0.03675542550826782	1.741287399269223e-07	1.970647508732932e-07	-9.59589693189176e-07	1.343564315161572e-06	-1.298452775627515e-08	3.254593370828286e-07	-8.326173656965488e-07
1.56	-0.1846839072982382	0.025002924838847	0.8738756317223001	0.7364436305552066	-0.2245575859543116	-0.1611090154455844	-0.2599046289009012	0.5448428585737052	0.5448428585737052	0.05427950436551571	0.1745061759577518	0.1557004221861776	0.03418280941939301	0.5338633070496464	0.2543065602489658	0.3577613605644371	-1.973408135779768	0.01005828009646596	-0.315545929035805	0.7861081896178295	-1.78038569398283	-1.780385693982832	0.3082016525615072	-5.497241179963844e-05	-0.4300271206737369	-0.09673945616651558	-0.09067468592012083	-0.03024650375272084	0.003890532052744292	-0.2807740313864266	0.117807354830737	-0.0154831809817278	0.1312504174541263	-38.9127502449589	-2.901349326843286	-2.370368147442252	-4.715683810458785	-3.367283711989688	-636.8226728127498	58.16503956655742	-0.03501294893132141	0.3735469955873505	-0.7293132518534314	-0.1179249332702521	-0.001504980209173318	-0.4240459353194616	1.20496304390677	-0.1558999584658278	-0.1558999584658278	0.3837115305444356	-0.02378544721473657	-0.09994196310915984	0.01424235148345354	1.837620297430147e-07	1.949078013402513e-07	-1.088188140086879e-06	1.328948151902147e-06	1.15789360599437e-09	3.3689304671768e-07	-8.971601451790127e-07
